<svg width="270" height="270" viewBox="0 0 270 270" fill="none" xmlns="http://www.w3.org/2000/svg">
<rect width="270" height="270" fill="#FDFBF7"/>
<path d="M167.757 77.9081L168.605 78.4042C185.899 58.5581 203.023 51.0845 217.33 51.2253C231.636 51.3661 243.217 59.1195 249.461 69.9225C255.705 80.7256 256.606 94.5672 249.551 106.89C242.496 119.213 227.435 130.098 201.598 134.853L201.594 135.836C227.432 140.797 242.442 151.786 249.432 164.147C256.423 176.508 255.444 190.324 249.149 201.075C242.853 211.827 231.247 219.503 216.979 219.58C202.712 219.657 185.692 212.132 168.607 192.286L167.756 192.779C176.507 217.587 174.548 236.046 167.352 248.266C160.156 260.485 147.676 266.551 135.186 266.5C122.697 266.449 110.214 260.28 103.017 248.033C95.8201 235.787 93.862 217.379 102.613 192.78L101.765 192.284C84.4701 212.131 67.3447 219.657 53.037 219.58C38.7297 219.503 27.1502 211.827 20.9072 201.077C14.6642 190.327 13.7621 176.511 20.8175 164.149C27.8735 151.786 42.9364 140.797 68.7743 135.836L68.7698 134.853C42.7212 130.097 27.5561 119.262 20.4631 107.004C13.3713 94.7485 14.2976 80.9869 20.5926 70.2362C26.8879 59.4849 38.5476 51.7547 52.9229 51.5754C67.297 51.3962 84.4736 58.7685 101.766 78.4061L102.611 77.9046C93.6521 53.3047 95.5079 34.9511 102.664 22.7722C109.82 10.5927 122.327 4.5 134.871 4.5C147.415 4.5 159.975 10.593 167.236 22.7749C174.496 34.9555 176.507 53.3096 167.757 77.9081ZM151.16 135.344C151.16 126.731 143.369 119.905 134.766 119.905C126.128 119.905 119.208 126.765 119.208 135.344C119.208 143.889 126.094 151.614 134.766 151.614C143.404 151.614 151.16 143.924 151.16 135.344Z" stroke="#8FA196"/>
<circle cx="135" cy="136" r="16" fill="#8FA196"/>
</svg>
