<?xml version="1.0" encoding="utf-8"?>
<!-- Generator: Adobe Illustrator 26.4.1, SVG Export Plug-In . SVG Version: 6.00 Build 0)  -->
<svg version="1.1" id="Слой_1" xmlns="http://www.w3.org/2000/svg" xmlns:xlink="http://www.w3.org/1999/xlink" x="0px" y="0px"
	 viewBox="0 0 125 70" style="enable-background:new 0 0 125 70;" xml:space="preserve">
<style type="text/css">
	.st0{fill:none;stroke:#232323;stroke-linecap:round;stroke-linejoin:round;}
	.st1{fill:#232323;stroke:#232323;stroke-width:0.75;stroke-miterlimit:10;}
	.st2{fill:none;stroke:#232323;}
</style>
<path class="st0" d="M62.6,12.9C68.7,6,77.6,1.7,87.5,1.7c18.4,0,33.3,14.9,33.3,33.3s-14.9,33.3-33.3,33.3
	c-9.9,0-18.8-4.3-24.9-11.2"/>
<g>
	<g>
		<path class="st1" d="M20.5,29.1c-0.4-0.4-1-0.8-1.6-1c-0.6-0.3-1.3-0.4-2-0.4c-0.7,0-1.4,0.1-2,0.4c-0.6,0.2-1.2,0.6-1.6,1
			s-0.8,1-1.1,1.6c-0.3,0.6-0.4,1.3-0.4,2c0,0.7,0.1,1.4,0.4,2c0.3,0.6,0.6,1.1,1.1,1.6c0.5,0.4,1,0.8,1.6,1.1
			c0.6,0.2,1.3,0.4,2,0.4c0.7,0,1.4-0.1,2-0.4c0.6-0.3,1.1-0.6,1.6-1.1c0.5-0.4,0.8-1,1.1-1.6c0.3-0.6,0.4-1.3,0.4-2
			c0-0.7-0.1-1.4-0.4-2C21.3,30,20.9,29.5,20.5,29.1z M21.1,34.4c-0.2,0.5-0.5,1-1,1.4c-0.4,0.4-0.9,0.7-1.5,1s-1.2,0.3-1.8,0.3
			c-0.6,0-1.2-0.1-1.8-0.3s-1.1-0.5-1.5-1c-0.4-0.4-0.7-0.9-1-1.4c-0.2-0.6-0.3-1.2-0.3-1.8c0-0.7,0.1-1.3,0.3-1.8
			c0.2-0.6,0.6-1,1-1.4c0.4-0.4,0.9-0.7,1.5-1s1.2-0.3,1.8-0.3c0.7,0,1.3,0.1,1.8,0.3s1,0.5,1.5,1c0.4,0.4,0.7,0.9,1,1.4
			c0.2,0.5,0.4,1.1,0.4,1.8C21.4,33.3,21.3,33.9,21.1,34.4z"/>
	</g>
	<path class="st1" d="M41.8,27.7l-4.5,9.8h0.5l1.3-2.9H45l1.3,2.9h0.5l-4.5-9.8H41.8z M39.3,34.2l2.7-6l2.7,6H39.3z"/>
	<g>
		<polygon class="st1" points="28.1,27.7 27.7,27.7 27.7,37.5 33.9,37.5 33.9,37.1 28.1,37.1 		"/>
	</g>
	<path class="st1" d="M59.2,28v8.6l-7-8.9h-0.4v9.8h0.5v-8.9l7,8.9h0.4v-9.8h-0.2C59.4,27.8,59.3,27.9,59.2,28z"/>
	<rect x="94.3" y="27.7" class="st1" width="0.5" height="9.8"/>
	<path class="st1" d="M108.9,37.5h0.5l-4.5-9.8h-0.5l-4.5,9.8h0.5l1.3-2.9h5.9L108.9,37.5z M101.9,34.2l2.7-6l2.7,6H101.9z"/>
	<path class="st1" d="M72.9,28.3c-0.8-0.4-1.7-0.6-2.7-0.6h-3.8v9.8h3.8c1,0,2-0.2,2.7-0.6c0.8-0.4,1.4-1,1.8-1.7
		c0.4-0.7,0.7-1.6,0.7-2.5c0-1-0.2-1.8-0.7-2.5C74.3,29.3,73.7,28.8,72.9,28.3z M74.3,34.9c-0.4,0.7-0.9,1.2-1.7,1.6
		c-0.7,0.4-1.5,0.6-2.5,0.6h-3.3v-8.9h3.3c1,0,1.8,0.2,2.5,0.6c0.7,0.4,1.3,0.9,1.7,1.6c0.4,0.7,0.6,1.4,0.6,2.3
		C74.9,33.5,74.7,34.2,74.3,34.9z"/>
	<path class="st1" d="M86.6,33.8c0.6-0.3,1-0.6,1.3-1.1c0.3-0.5,0.5-1.1,0.5-1.8s-0.2-1.3-0.5-1.7c-0.3-0.5-0.8-0.9-1.3-1.1
		c-0.6-0.3-1.3-0.4-2.1-0.4h-3.4v9.8h0.5v-3.3h2.9c0.4,0,0.7,0,1.1-0.1l2.4,3.4h0.6L86.1,34C86.3,33.9,86.5,33.9,86.6,33.8z
		 M81.6,33.8v-5.6h3c1.1,0,1.9,0.2,2.5,0.7c0.6,0.5,0.9,1.2,0.9,2.1s-0.3,1.6-0.9,2.1c-0.6,0.5-1.4,0.7-2.5,0.7H81.6z"/>
</g>
<path class="st2" d="M11,47.5h37.5"/>
<circle class="st2" cx="86.5" cy="15" r="4.3"/>
<g>
	<g>
		<path d="M80.8,51.6l2.1-4.6h0.7l2.1,4.6h-0.7l-1.9-4.2h0.3l-1.9,4.2H80.8z M81.7,50.4l0.2-0.5h2.6l0.2,0.5H81.7z"/>
		<path d="M87.5,51.6v-4.6h1.8c0.4,0,0.8,0.1,1,0.2s0.5,0.3,0.7,0.6c0.2,0.2,0.2,0.5,0.2,0.9c0,0.3-0.1,0.6-0.2,0.9
			c-0.2,0.2-0.4,0.4-0.7,0.6s-0.6,0.2-1,0.2h-1.4l0.3-0.3v1.7H87.5z M88.2,49.9l-0.3-0.3h1.4c0.4,0,0.7-0.1,1-0.3s0.3-0.4,0.3-0.8
			s-0.1-0.6-0.3-0.8c-0.2-0.2-0.5-0.3-1-0.3h-1.4l0.3-0.3V49.9z"/>
		<path d="M93.5,51.6v-4.6h1.8c0.4,0,0.8,0.1,1,0.2s0.5,0.3,0.7,0.6c0.2,0.2,0.2,0.5,0.2,0.9c0,0.3-0.1,0.6-0.2,0.9
			c-0.2,0.2-0.4,0.4-0.7,0.6s-0.6,0.2-1,0.2h-1.4l0.3-0.3v1.7H93.5z M94.1,49.9l-0.3-0.3h1.4c0.4,0,0.7-0.1,1-0.3s0.3-0.4,0.3-0.8
			s-0.1-0.6-0.3-0.8c-0.2-0.2-0.5-0.3-1-0.3h-1.4l0.3-0.3V49.9z"/>
		<path d="M100.8,51.6c-0.4,0-0.7-0.1-1-0.2c-0.3-0.1-0.6-0.2-0.8-0.4l0.2-0.5c0.2,0.2,0.4,0.3,0.7,0.4c0.3,0.1,0.6,0.2,0.9,0.2
			c0.3,0,0.5,0,0.7-0.1c0.2-0.1,0.3-0.1,0.4-0.3c0.1-0.1,0.1-0.2,0.1-0.4c0-0.2-0.1-0.3-0.2-0.4s-0.2-0.2-0.4-0.2
			c-0.2-0.1-0.3-0.1-0.5-0.2s-0.4-0.1-0.6-0.2s-0.4-0.1-0.5-0.2s-0.3-0.2-0.4-0.4c-0.1-0.2-0.2-0.4-0.2-0.6c0-0.2,0.1-0.5,0.2-0.7
			c0.1-0.2,0.3-0.4,0.6-0.5s0.6-0.2,1-0.2c0.3,0,0.5,0,0.8,0.1s0.5,0.2,0.7,0.3l-0.2,0.5c-0.2-0.1-0.4-0.2-0.6-0.3
			c-0.2-0.1-0.4-0.1-0.6-0.1c-0.3,0-0.5,0-0.6,0.1c-0.2,0.1-0.3,0.2-0.4,0.3c-0.1,0.1-0.1,0.2-0.1,0.4c0,0.2,0.1,0.3,0.2,0.4
			c0.1,0.1,0.2,0.2,0.4,0.2s0.3,0.1,0.5,0.2s0.4,0.1,0.6,0.2c0.2,0.1,0.4,0.1,0.5,0.2c0.2,0.1,0.3,0.2,0.4,0.4
			c0.1,0.2,0.2,0.4,0.2,0.6c0,0.2-0.1,0.5-0.2,0.7s-0.3,0.4-0.6,0.5S101.2,51.6,100.8,51.6z"/>
	</g>
</g>
</svg>
