<?xml version="1.0" encoding="utf-8"?>
<!-- Generator: Adobe Illustrator 26.4.1, SVG Export Plug-In . SVG Version: 6.00 Build 0)  -->
<svg version="1.1" id="Слой_1" xmlns="http://www.w3.org/2000/svg" xmlns:xlink="http://www.w3.org/1999/xlink" x="0px" y="0px"
	 viewBox="0 0 125 70" style="enable-background:new 0 0 125 70;" xml:space="preserve">
<style type="text/css">
	.st0{fill:none;stroke:#232323;stroke-linecap:round;stroke-linejoin:round;}
	.st1{fill:none;stroke:#232323;}
</style>
<path class="st0" d="M62.6,12.9C68.7,6,77.6,1.7,87.5,1.7c18.4,0,33.3,14.9,33.3,33.3s-14.9,33.3-33.3,33.3
	c-9.9,0-18.8-4.3-24.9-11.2"/>
<path class="st1" d="M11,47.5h37.5"/>
<circle class="st1" cx="86.5" cy="15" r="4.3"/>
<g>
	<g>
		<path d="M80.8,51.6l2.1-4.6h0.8l2.1,4.6h-0.9l-1.8-4.2h0.3l-1.8,4.2H80.8z M81.7,50.5l0.2-0.7h2.5l0.2,0.7H81.7z"/>
		<path d="M87.5,51.6v-4.6h1.9c0.4,0,0.8,0.1,1.1,0.2c0.3,0.1,0.5,0.3,0.7,0.6c0.2,0.2,0.2,0.5,0.2,0.9c0,0.3-0.1,0.6-0.2,0.9
			c-0.2,0.2-0.4,0.4-0.7,0.6c-0.3,0.1-0.6,0.2-1.1,0.2H88l0.4-0.4v1.7H87.5z M88.4,49.9L88,49.5h1.4c0.4,0,0.7-0.1,0.9-0.2
			c0.2-0.2,0.3-0.4,0.3-0.7s-0.1-0.5-0.3-0.7c-0.2-0.2-0.5-0.2-0.9-0.2H88l0.4-0.4V49.9z"/>
		<path d="M93.5,51.6v-4.6h1.9c0.4,0,0.8,0.1,1.1,0.2c0.3,0.1,0.5,0.3,0.7,0.6c0.2,0.2,0.2,0.5,0.2,0.9c0,0.3-0.1,0.6-0.2,0.9
			c-0.2,0.2-0.4,0.4-0.7,0.6c-0.3,0.1-0.6,0.2-1.1,0.2H94l0.4-0.4v1.7H93.5z M94.4,49.9L94,49.5h1.4c0.4,0,0.7-0.1,0.9-0.2
			c0.2-0.2,0.3-0.4,0.3-0.7s-0.1-0.5-0.3-0.7c-0.2-0.2-0.5-0.2-0.9-0.2H94l0.4-0.4V49.9z"/>
		<path d="M100.9,51.6c-0.4,0-0.7-0.1-1-0.2s-0.6-0.2-0.8-0.4l0.3-0.7c0.2,0.1,0.4,0.3,0.7,0.4c0.3,0.1,0.6,0.1,0.8,0.1
			c0.2,0,0.4,0,0.6-0.1s0.3-0.1,0.3-0.2s0.1-0.2,0.1-0.3c0-0.1,0-0.3-0.2-0.3c-0.1-0.1-0.2-0.2-0.4-0.2c-0.2-0.1-0.3-0.1-0.5-0.1
			c-0.2,0-0.4-0.1-0.6-0.2c-0.2-0.1-0.4-0.1-0.5-0.2c-0.2-0.1-0.3-0.2-0.4-0.4s-0.1-0.4-0.1-0.6c0-0.3,0.1-0.5,0.2-0.7
			s0.3-0.4,0.6-0.5c0.3-0.1,0.6-0.2,1-0.2c0.3,0,0.6,0,0.8,0.1c0.3,0.1,0.5,0.2,0.7,0.3l-0.3,0.7c-0.2-0.1-0.4-0.2-0.6-0.3
			c-0.2-0.1-0.4-0.1-0.6-0.1c-0.2,0-0.4,0-0.6,0.1c-0.1,0.1-0.3,0.1-0.3,0.2c-0.1,0.1-0.1,0.2-0.1,0.3c0,0.1,0,0.3,0.1,0.3
			c0.1,0.1,0.2,0.2,0.4,0.2c0.2,0,0.3,0.1,0.5,0.1c0.2,0,0.4,0.1,0.6,0.2c0.2,0.1,0.4,0.1,0.5,0.2c0.2,0.1,0.3,0.2,0.4,0.4
			c0.1,0.2,0.1,0.4,0.1,0.6c0,0.2-0.1,0.5-0.2,0.7c-0.1,0.2-0.3,0.4-0.6,0.5C101.7,51.6,101.4,51.6,100.9,51.6z"/>
	</g>
</g>
<g>
	<g>
		<path d="M16.9,37.9c-0.8,0-1.5-0.1-2.2-0.4c-0.7-0.3-1.3-0.6-1.8-1.1c-0.5-0.5-0.9-1.1-1.2-1.7c-0.3-0.6-0.4-1.4-0.4-2.1
			s0.1-1.5,0.4-2.1c0.3-0.6,0.7-1.2,1.2-1.7c0.5-0.5,1.1-0.9,1.8-1.1c0.7-0.3,1.4-0.4,2.2-0.4c0.8,0,1.5,0.1,2.2,0.4
			c0.7,0.3,1.3,0.6,1.8,1.1c0.5,0.5,0.9,1.1,1.2,1.7c0.3,0.7,0.4,1.4,0.4,2.1c0,0.8-0.1,1.5-0.4,2.1s-0.7,1.2-1.2,1.7
			c-0.5,0.5-1.1,0.9-1.8,1.1C18.4,37.8,17.7,37.9,16.9,37.9z M16.9,36.6c0.6,0,1.1-0.1,1.6-0.3c0.5-0.2,0.9-0.5,1.3-0.8
			c0.4-0.4,0.6-0.8,0.9-1.3c0.2-0.5,0.3-1,0.3-1.6s-0.1-1.1-0.3-1.6c-0.2-0.5-0.5-0.9-0.9-1.3c-0.4-0.4-0.8-0.7-1.3-0.9
			c-0.5-0.2-1-0.3-1.6-0.3c-0.6,0-1.1,0.1-1.6,0.3s-0.9,0.5-1.3,0.9c-0.4,0.4-0.7,0.8-0.9,1.3c-0.2,0.5-0.3,1-0.3,1.6
			s0.1,1.1,0.3,1.6c0.2,0.5,0.5,0.9,0.9,1.3c0.4,0.4,0.8,0.6,1.3,0.8S16.3,36.6,16.9,36.6z"/>
		<path d="M26.8,37.8V27.3h1.5v9.2H34v1.3H26.8z"/>
		<path d="M36.3,37.8L41,27.3h1.5l4.8,10.5h-1.6l-4.2-9.7H42l-4.2,9.7H36.3z M38.3,35.2l0.4-1.2h5.9l0.4,1.2H38.3z"/>
		<path d="M50.9,37.8V27.3h1.2l6.9,8.6h-0.6v-8.6H60v10.5h-1.2l-6.9-8.6h0.6v8.6H50.9z"/>
		<path d="M65.2,37.8V27.3h4.4c1.1,0,2.1,0.2,3,0.7c0.9,0.4,1.5,1.1,2,1.8c0.5,0.8,0.7,1.7,0.7,2.7s-0.2,2-0.7,2.7
			c-0.5,0.8-1.1,1.4-2,1.8c-0.9,0.4-1.8,0.7-3,0.7H65.2z M66.7,36.5h2.8c0.9,0,1.6-0.2,2.3-0.5c0.6-0.3,1.1-0.8,1.5-1.4
			c0.4-0.6,0.5-1.3,0.5-2.1c0-0.8-0.2-1.5-0.5-2.1c-0.3-0.6-0.8-1.1-1.5-1.4c-0.6-0.3-1.4-0.5-2.3-0.5h-2.8V36.5z"/>
		<path d="M79.7,37.8V27.3h4.1c0.9,0,1.7,0.1,2.4,0.4c0.6,0.3,1.1,0.7,1.5,1.3c0.3,0.6,0.5,1.2,0.5,2s-0.2,1.4-0.5,2
			c-0.4,0.5-0.9,1-1.5,1.3c-0.7,0.3-1.4,0.4-2.4,0.4h-3.3l0.7-0.7v3.9H79.7z M81.2,34.1l-0.7-0.7h3.2c1,0,1.7-0.2,2.2-0.6
			s0.7-1,0.7-1.7s-0.2-1.3-0.7-1.7c-0.5-0.4-1.2-0.6-2.2-0.6h-3.2l0.7-0.8V34.1z M86.7,37.8L84,34h1.6l2.7,3.8H86.7z"/>
		<path d="M92.7,37.8V27.3h1.5v10.5H92.7z"/>
		<path d="M97.9,37.8l4.8-10.5h1.5l4.8,10.5h-1.6l-4.2-9.7h0.6l-4.2,9.7H97.9z M99.9,35.2l0.4-1.2h5.9l0.4,1.2H99.9z"/>
	</g>
</g>
</svg>
