<svg width="117" height="67" viewBox="0 0 117 67" fill="none" xmlns="http://www.w3.org/2000/svg">
<path d="M116.8 33.5C116.8 51.8911 101.891 66.8 83.5 66.8C65.1089 66.8 50.2 51.8911 50.2 33.5C50.2 15.1089 65.1089 0.2 83.5 0.2C101.891 0.2 116.8 15.1089 116.8 33.5Z" fill="#FDFBF7" stroke="#232323" stroke-width="0.4" stroke-linecap="round" stroke-linejoin="round"/>
<path d="M67 33.5C67 52.0015 52.0015 67 33.5 67C14.9985 67 0 52.0015 0 33.5C0 14.9985 14.9985 0 33.5 0C52.0015 0 67 14.9985 67 33.5Z" fill="#FDFBF7"/>
<path d="M12.852 36.056C12.1333 36.056 11.466 35.9347 10.85 35.692C10.234 35.44 9.69733 35.09 9.24 34.642C8.78267 34.194 8.428 33.6713 8.176 33.074C7.924 32.4673 7.798 31.8093 7.798 31.1C7.798 30.3907 7.924 29.7373 8.176 29.14C8.428 28.5333 8.78267 28.006 9.24 27.558C9.69733 27.11 10.234 26.7647 10.85 26.522C11.466 26.27 12.1333 26.144 12.852 26.144C13.58 26.144 14.252 26.27 14.868 26.522C15.484 26.7647 16.016 27.11 16.464 27.558C16.9213 28.006 17.276 28.5333 17.528 29.14C17.7893 29.7373 17.92 30.3907 17.92 31.1C17.92 31.8093 17.7893 32.4673 17.528 33.074C17.276 33.6713 16.9213 34.194 16.464 34.642C16.016 35.09 15.484 35.44 14.868 35.692C14.252 35.9347 13.58 36.056 12.852 36.056ZM12.852 35.622C13.5053 35.622 14.112 35.51 14.672 35.286C15.232 35.062 15.7173 34.7447 16.128 34.334C16.548 33.9233 16.87 33.4473 17.094 32.906C17.3273 32.3553 17.444 31.7533 17.444 31.1C17.444 30.4467 17.3273 29.8493 17.094 29.308C16.87 28.7573 16.548 28.2767 16.128 27.866C15.7173 27.4553 15.232 27.138 14.672 26.914C14.112 26.69 13.5053 26.578 12.852 26.578C12.208 26.578 11.606 26.69 11.046 26.914C10.486 27.138 9.996 27.4553 9.576 27.866C9.16533 28.2767 8.84333 28.7573 8.61 29.308C8.386 29.8493 8.274 30.4467 8.274 31.1C8.274 31.7533 8.386 32.3553 8.61 32.906C8.84333 33.4473 9.16533 33.9233 9.576 34.334C9.996 34.7447 10.486 35.062 11.046 35.286C11.606 35.51 12.208 35.622 12.852 35.622ZM23.6588 36V26.2H24.1348V35.566H29.8748V36H23.6588ZM33.2632 36L37.7992 26.2H38.2612L42.7972 36H42.2792L37.9252 26.522H38.1352L33.7812 36H33.2632ZM34.8312 33.13L35.0132 32.724H41.0052L41.1872 33.13H34.8312ZM47.8553 36V26.2H48.2473L55.4433 35.44H55.2053V26.2H55.6813V36H55.2893L48.0933 26.76H48.3313V36H47.8553ZM62.4213 36V26.2H66.2013C67.2466 26.2 68.1566 26.4147 68.9313 26.844C69.706 27.264 70.308 27.8427 70.7373 28.58C71.176 29.308 71.3953 30.148 71.3953 31.1C71.3953 32.052 71.176 32.8967 70.7373 33.634C70.308 34.362 69.706 34.9407 68.9313 35.37C68.1566 35.79 67.2466 36 66.2013 36H62.4213ZM62.8973 35.566H66.1733C67.1346 35.566 67.97 35.3747 68.6793 34.992C69.398 34.6093 69.9486 34.082 70.3313 33.41C70.7233 32.738 70.9193 31.968 70.9193 31.1C70.9193 30.232 70.7233 29.462 70.3313 28.79C69.9486 28.118 69.398 27.5907 68.6793 27.208C67.97 26.8253 67.1346 26.634 66.1733 26.634H62.8973V35.566ZM77.1377 36V26.2H80.5397C81.3517 26.2 82.047 26.3307 82.6257 26.592C83.2137 26.8533 83.6617 27.2267 83.9697 27.712C84.2777 28.188 84.4317 28.7667 84.4317 29.448C84.4317 30.1293 84.2777 30.7127 83.9697 31.198C83.6617 31.6833 83.2137 32.0567 82.6257 32.318C82.047 32.5793 81.3517 32.71 80.5397 32.71H77.4037L77.6137 32.486V36H77.1377ZM84.0257 36L81.4777 32.444H82.0237L84.5857 36H84.0257ZM77.6137 32.486L77.4037 32.276H80.5677C81.669 32.276 82.509 32.0287 83.0877 31.534C83.6757 31.0393 83.9697 30.344 83.9697 29.448C83.9697 28.552 83.6757 27.8613 83.0877 27.376C82.509 26.8813 81.669 26.634 80.5677 26.634H77.4037L77.6137 26.41V32.486ZM90.3365 36V26.2H90.8125V36H90.3365ZM95.8531 36L100.389 26.2H100.851L105.387 36H104.869L100.515 26.522H100.725L96.3711 36H95.8531ZM97.4211 33.13L97.6031 32.724H103.595L103.777 33.13H97.4211Z" fill="#232323"/>
<path d="M7 46H44.5" stroke="#232323" stroke-width="0.4"/>
<circle cx="82.5" cy="13.5" r="4.3" fill="#FDFBF7" stroke="#232323" stroke-width="0.4"/>
<path d="M77.012 50L78.932 45.8H79.37L81.29 50H80.822L79.058 46.058H79.238L77.474 50H77.012ZM77.768 48.878L77.9 48.518H80.342L80.474 48.878H77.768ZM83.6348 50V45.8H85.2068C85.5628 45.8 85.8688 45.858 86.1248 45.974C86.3808 46.086 86.5768 46.25 86.7128 46.466C86.8528 46.678 86.9228 46.936 86.9228 47.24C86.9228 47.536 86.8528 47.792 86.7128 48.008C86.5768 48.22 86.3808 48.384 86.1248 48.5C85.8688 48.616 85.5628 48.674 85.2068 48.674H83.8808L84.0788 48.464V50H83.6348ZM84.0788 48.5L83.8808 48.284H85.1948C85.6148 48.284 85.9328 48.194 86.1488 48.014C86.3688 47.83 86.4788 47.572 86.4788 47.24C86.4788 46.904 86.3688 46.644 86.1488 46.46C85.9328 46.276 85.6148 46.184 85.1948 46.184H83.8808L84.0788 45.974V48.5ZM89.5328 50V45.8H91.1048C91.4608 45.8 91.7668 45.858 92.0228 45.974C92.2788 46.086 92.4748 46.25 92.6108 46.466C92.7508 46.678 92.8208 46.936 92.8208 47.24C92.8208 47.536 92.7508 47.792 92.6108 48.008C92.4748 48.22 92.2788 48.384 92.0228 48.5C91.7668 48.616 91.4608 48.674 91.1048 48.674H89.7788L89.9768 48.464V50H89.5328ZM89.9768 48.5L89.7788 48.284H91.0928C91.5128 48.284 91.8308 48.194 92.0468 48.014C92.2668 47.83 92.3768 47.572 92.3768 47.24C92.3768 46.904 92.2668 46.644 92.0468 46.46C91.8308 46.276 91.5128 46.184 91.0928 46.184H89.7788L89.9768 45.974V48.5ZM96.6475 50.036C96.3355 50.036 96.0355 49.986 95.7475 49.886C95.4635 49.782 95.2435 49.65 95.0875 49.49L95.2615 49.148C95.4095 49.292 95.6075 49.414 95.8555 49.514C96.1075 49.61 96.3715 49.658 96.6475 49.658C96.9115 49.658 97.1255 49.626 97.2895 49.562C97.4575 49.494 97.5795 49.404 97.6555 49.292C97.7355 49.18 97.7755 49.056 97.7755 48.92C97.7755 48.756 97.7275 48.624 97.6315 48.524C97.5395 48.424 97.4175 48.346 97.2655 48.29C97.1135 48.23 96.9455 48.178 96.7615 48.134C96.5775 48.09 96.3935 48.044 96.2095 47.996C96.0255 47.944 95.8555 47.876 95.6995 47.792C95.5475 47.708 95.4235 47.598 95.3275 47.462C95.2355 47.322 95.1895 47.14 95.1895 46.916C95.1895 46.708 95.2435 46.518 95.3515 46.346C95.4635 46.17 95.6335 46.03 95.8615 45.926C96.0895 45.818 96.3815 45.764 96.7375 45.764C96.9735 45.764 97.2075 45.798 97.4395 45.866C97.6715 45.93 97.8715 46.02 98.0395 46.136L97.8895 46.49C97.7095 46.37 97.5175 46.282 97.3135 46.226C97.1135 46.17 96.9195 46.142 96.7315 46.142C96.4795 46.142 96.2715 46.176 96.1075 46.244C95.9435 46.312 95.8215 46.404 95.7415 46.52C95.6655 46.632 95.6275 46.76 95.6275 46.904C95.6275 47.068 95.6735 47.2 95.7655 47.3C95.8615 47.4 95.9855 47.478 96.1375 47.534C96.2935 47.59 96.4635 47.64 96.6475 47.684C96.8315 47.728 97.0135 47.776 97.1935 47.828C97.3775 47.88 97.5455 47.948 97.6975 48.032C97.8535 48.112 97.9775 48.22 98.0695 48.356C98.1655 48.492 98.2135 48.67 98.2135 48.89C98.2135 49.094 98.1575 49.284 98.0455 49.46C97.9335 49.632 97.7615 49.772 97.5295 49.88C97.3015 49.984 97.0075 50.036 96.6475 50.036Z" fill="#232323"/>
</svg>
