<svg width="64" height="63" viewBox="0 0 64 63" fill="none" xmlns="http://www.w3.org/2000/svg">
<circle cx="31.7002" cy="31.5" r="31" fill="#EFF0EB" stroke="#232323"/>
<path d="M48.2191 14.1615L48.2193 14.1614C48.3694 14.1023 48.5328 14.0855 48.6918 14.1126C48.8507 14.1397 48.9992 14.2098 49.1213 14.3152C49.2427 14.4204 49.3332 14.5566 49.3831 14.7093C49.4329 14.862 49.4402 15.0254 49.4043 15.1819L41.4072 49.95L41.4071 49.9506C41.3215 50.3324 41.1372 50.6851 40.8727 50.9735C40.6081 51.2618 40.2726 51.4757 39.8995 51.5938L39.8993 51.5939C39.671 51.6668 39.4329 51.7043 39.1933 51.7053C38.6455 51.7031 38.1171 51.5021 37.7062 51.1397L37.7059 51.1395L29.2403 43.7154L29.1686 43.6525L29.1024 43.7211L23.5899 49.4305L23.5898 49.4306C23.3793 49.6494 23.127 49.8236 22.8477 49.9428C22.5686 50.0619 22.2683 50.1237 21.9647 50.1244C21.6746 50.124 21.3873 50.0684 21.1181 49.9603C20.6999 49.7915 20.3416 49.5016 20.0893 49.1278C19.837 48.7538 19.7023 48.313 19.7023 47.8619V35.6872V35.6049L19.6216 35.5891L8.64777 33.4352L8.64757 33.4352C8.24056 33.3562 7.87026 33.147 7.5925 32.8391C7.31474 32.5313 7.14456 32.1416 7.10761 31.7286C7.07066 31.3156 7.16895 30.9018 7.38766 30.5496C7.60637 30.1974 7.93364 29.9258 8.32016 29.7757L8.32042 29.7756L48.2191 14.1615ZM43.2994 17.7741L43.2047 17.5997L8.82227 31.0554C8.71082 31.0943 8.61595 31.1701 8.55332 31.2702C8.49093 31.3699 8.46427 31.4879 8.47764 31.6047C8.48445 31.723 8.53166 31.8354 8.61142 31.9231C8.69139 32.011 8.79918 32.0687 8.91664 32.0865L20.1875 34.2989L20.2299 34.3072L20.265 34.2821L43.2994 17.7741ZM22.6016 48.475L22.6019 48.4747L28.0573 42.8126L28.13 42.7371L28.0512 42.668L21.2432 36.7027L21.0773 36.5573V36.7779L21.0773 47.8619L21.0773 47.8626C21.0785 48.0387 21.132 48.2106 21.2311 48.3562C21.3303 48.5018 21.4705 48.6146 21.634 48.6803C21.7974 48.746 21.9767 48.7615 22.149 48.725C22.3214 48.6884 22.4789 48.6014 22.6016 48.475ZM21.5975 35.0192L21.4951 35.0926L21.5898 35.1757L38.6088 50.1001C38.609 50.1002 38.6092 50.1004 38.6094 50.1006C38.7243 50.2034 38.8641 50.2746 39.015 50.3069C39.1661 50.3394 39.323 50.3318 39.4703 50.2849C39.6175 50.2381 39.75 50.1536 39.8546 50.0399C39.9591 49.9261 40.0322 49.787 40.0665 49.6363L47.6816 16.5419L47.7409 16.2841L47.5259 16.4381L21.5975 35.0192Z" fill="#232323" stroke="#EFF0EB" stroke-width="0.2"/>
</svg>
