<svg width="63" height="63" viewBox="0 0 63 63" fill="none" xmlns="http://www.w3.org/2000/svg">
<path d="M31.6138 1C26.2959 1.00571 21.0711 2.39467 16.453 5.03033C11.8348 7.66599 7.98243 11.4576 5.27455 16.0324C2.56666 20.6071 1.0965 25.8075 1.00862 31.1223C0.920744 36.4371 2.21817 41.6832 4.77333 46.3449L1 62.2L16.8622 58.4284C20.9535 60.6717 25.5036 61.9505 30.1649 62.167C34.8263 62.3835 39.4755 61.5321 43.7572 59.6777C48.0389 57.8234 51.8399 55.0152 54.8697 51.4678C57.8994 47.9203 60.0778 43.7275 61.2382 39.2098C62.3987 34.6921 62.5106 29.969 61.5653 25.4014C60.6201 20.8338 58.6427 16.5427 55.7843 12.8559C52.9259 9.16915 49.2622 6.1843 45.073 4.12947C40.8839 2.07464 36.2802 1.00422 31.6138 1ZM16.3069 14.9052H24.651C25.0286 14.9052 25.3908 15.0552 25.6578 15.3221C25.9249 15.589 26.0749 15.951 26.0749 16.3285C26.0282 18.2265 26.3472 20.1158 27.0146 21.8934C27.3021 22.4884 27.3653 23.1671 27.1927 23.8049C27.0201 24.4428 26.6232 24.9971 26.0749 25.3661L23.1559 28.2127C24.4501 30.739 26.1425 33.0408 28.168 35.03C30.142 37.0876 32.4355 38.813 34.96 40.1395L37.8078 37.2219C39.2317 35.7986 39.8867 35.7986 41.2821 36.2825C43.0605 36.9496 44.9507 37.2685 46.8496 37.2219C47.2216 37.2392 47.5738 37.3947 47.8372 37.6579C48.1006 37.9212 48.2561 38.2732 48.2735 38.6451V46.9854C48.2561 47.3573 48.1006 47.7093 47.8372 47.9726C47.5738 48.2358 47.2216 48.3913 46.8496 48.4087C38.4736 48.0439 30.534 44.5732 24.5798 38.6736C18.6683 32.7283 15.1943 24.7885 14.8403 16.4139C14.8437 16.0221 14.998 15.6467 15.2711 15.3658C15.5443 15.0848 15.9152 14.9198 16.3069 14.9052Z" stroke="#232323" stroke-width="1.2" stroke-linecap="round" stroke-linejoin="round"/>
</svg>
