<svg width="270" height="270" viewBox="0 0 270 270" fill="none" xmlns="http://www.w3.org/2000/svg">
<rect width="270" height="270" fill="#FDFBF7"/>
<path d="M113.971 163.6C108.704 163.6 103.804 162.733 99.2707 161C94.804 159.2 90.904 156.7 87.5707 153.5C84.304 150.233 81.7374 146.467 79.8707 142.2C78.0707 137.867 77.1707 133.133 77.1707 128C77.1707 122.867 78.0707 118.167 79.8707 113.9C81.7374 109.567 84.304 105.8 87.5707 102.6C90.904 99.3333 94.804 96.8333 99.2707 95.1C103.737 93.3 108.637 92.4 113.971 92.4C119.237 92.4 124.104 93.3 128.571 95.1C133.037 96.8333 136.904 99.3 140.171 102.5C143.504 105.7 146.071 109.467 147.871 113.8C149.737 118.133 150.671 122.867 150.671 128C150.671 133.133 149.737 137.867 147.871 142.2C146.071 146.533 143.504 150.3 140.171 153.5C136.904 156.7 133.037 159.2 128.571 161C124.104 162.733 119.237 163.6 113.971 163.6ZM113.971 157C118.171 157 122.037 156.3 125.571 154.9C129.171 153.433 132.271 151.4 134.871 148.8C137.537 146.133 139.604 143.067 141.071 139.6C142.537 136.067 143.271 132.2 143.271 128C143.271 123.8 142.537 119.967 141.071 116.5C139.604 112.967 137.537 109.9 134.871 107.3C132.271 104.633 129.171 102.6 125.571 101.2C122.037 99.7333 118.171 99 113.971 99C109.771 99 105.871 99.7333 102.271 101.2C98.6707 102.6 95.5374 104.633 92.8707 107.3C90.2707 109.9 88.204 112.967 86.6707 116.5C85.204 119.967 84.4707 123.8 84.4707 128C84.4707 132.133 85.204 135.967 86.6707 139.5C88.204 143.033 90.2707 146.133 92.8707 148.8C95.5374 151.4 98.6707 153.433 102.271 154.9C105.871 156.3 109.771 157 113.971 157Z" fill="#232323"/>
<path d="M125.793 180L157.793 110H165.093L197.093 180H189.293L159.893 114.3H162.893L133.493 180H125.793ZM138.393 161.3L140.593 155.3H181.293L183.493 161.3H138.393Z" fill="#232323"/>
</svg>
